M48
; DRILL file {KiCad (5.1.9)-1} date 03/18/23 11:39:22
; FORMAT={-:-/ absolute / metric / decimal}
; #@! TF.CreationDate,2023-03-18T11:39:22+01:00
; #@! TF.GenerationSoftware,Kicad,Pcbnew,(5.1.9)-1
FMAT,2
METRIC
T1C0.700
T2C0.800
T3C0.900
T4C1.000
T5C1.200
%
G90
G05
T1
X4.7Y22.0
X4.7Y19.0
X30.0Y26.2
X30.0Y16.2
X35.2Y26.2
X35.2Y16.2
T2
X12.8Y8.3
X12.8Y1.3
X26.7Y7.9
X26.7Y2.9
T3
X40.92Y33.74
X40.92Y31.2
X40.92Y28.66
X40.92Y26.12
X40.92Y23.58
X40.92Y21.04
X43.49Y35.11
X43.49Y19.87
X46.03Y35.11
X46.03Y19.87
X48.57Y35.11
X48.57Y19.87
X51.11Y35.11
X51.11Y19.87
X52.38Y32.57
X53.65Y35.11
X53.65Y19.87
X54.92Y32.57
X56.19Y35.11
X56.19Y19.87
X56.4Y7.9
X58.73Y35.11
X58.73Y19.87
X58.9Y7.9
X61.27Y35.11
X61.27Y19.87
X61.4Y7.9
X63.81Y35.11
X63.81Y19.87
X63.9Y7.9
X66.35Y35.11
X66.35Y19.87
X68.89Y35.11
X68.89Y19.87
X71.43Y35.11
X71.43Y32.57
X71.43Y30.03
X71.43Y27.49
X71.43Y19.87
T4
X11.1Y22.0
X12.8Y18.0
X14.5Y22.0
X16.2Y18.0
X17.9Y22.0
T5
X4.48Y12.8
X4.68Y33.8
X9.76Y33.8
X14.84Y33.8
X19.72Y12.8
X19.92Y33.8
X25.0Y33.8
T0
M30
