%TF.GenerationSoftware,KiCad,Pcbnew,(5.1.9)-1*%
%TF.CreationDate,2023-03-18T11:39:19+01:00*%
%TF.ProjectId,Tachymetre,54616368-796d-4657-9472-652e6b696361,rev?*%
%TF.SameCoordinates,PX41cdb40PY7459280*%
%TF.FileFunction,Copper,L2,Bot*%
%TF.FilePolarity,Positive*%
%FSLAX46Y46*%
G04 Gerber Fmt 4.6, Leading zero omitted, Abs format (unit mm)*
G04 Created by KiCad (PCBNEW (5.1.9)-1) date 2023-03-18 11:39:19*
%MOMM*%
%LPD*%
G01*
G04 APERTURE LIST*
%TA.AperFunction,ComponentPad*%
%ADD10C,2.000000*%
%TD*%
%TA.AperFunction,ComponentPad*%
%ADD11O,2.000000X3.000000*%
%TD*%
%TA.AperFunction,ComponentPad*%
%ADD12R,2.000000X3.000000*%
%TD*%
%TA.AperFunction,ComponentPad*%
%ADD13C,3.000000*%
%TD*%
%TA.AperFunction,ComponentPad*%
%ADD14R,3.000000X3.000000*%
%TD*%
%TA.AperFunction,ComponentPad*%
%ADD15R,2.200000X3.200000*%
%TD*%
%TA.AperFunction,ComponentPad*%
%ADD16O,2.200000X3.200000*%
%TD*%
%TA.AperFunction,ComponentPad*%
%ADD17C,2.300000*%
%TD*%
%TA.AperFunction,ComponentPad*%
%ADD18C,2.500000*%
%TD*%
%TA.AperFunction,ComponentPad*%
%ADD19R,2.000000X2.000000*%
%TD*%
%TA.AperFunction,Conductor*%
%ADD20C,1.000000*%
%TD*%
%TA.AperFunction,Conductor*%
%ADD21C,0.800000*%
%TD*%
G04 APERTURE END LIST*
D10*
%TO.P,XA1,GND5*%
%TO.N,N/C*%
X40920000Y33740000D03*
%TO.P,XA1,GND4*%
X40920000Y31200000D03*
%TO.P,XA1,VCC1*%
X40920000Y28660000D03*
%TO.P,XA1,RXI*%
X40920000Y26120000D03*
%TO.P,XA1,TX0*%
X40920000Y23580000D03*
%TO.P,XA1,DTR*%
X40920000Y21040000D03*
%TO.P,XA1,GND2*%
X51110000Y19870000D03*
%TO.P,XA1,D9*%
X71430000Y19870000D03*
%TO.P,XA1,A4*%
%TO.N,SDA*%
X54920000Y32570000D03*
%TO.P,XA1,D8*%
%TO.N,N/C*%
X68890000Y19870000D03*
%TO.P,XA1,D7*%
X66350000Y19870000D03*
%TO.P,XA1,D6*%
X63810000Y19870000D03*
%TO.P,XA1,D5*%
X61270000Y19870000D03*
%TO.P,XA1,D4*%
X58730000Y19870000D03*
%TO.P,XA1,D3*%
X56190000Y19870000D03*
%TO.P,XA1,D2*%
%TO.N,Net-(R100-Pad1)*%
X53650000Y19870000D03*
%TO.P,XA1,RST2*%
%TO.N,N/C*%
X48570000Y19870000D03*
%TO.P,XA1,D1*%
X46030000Y19870000D03*
%TO.P,XA1,D0*%
X43490000Y19870000D03*
%TO.P,XA1,A5*%
%TO.N,SCL*%
X52380000Y32570000D03*
%TO.P,XA1,A7*%
%TO.N,N/C*%
X71430000Y32570000D03*
%TO.P,XA1,A6*%
X71430000Y30030000D03*
%TO.P,XA1,GND3*%
X71430000Y27490000D03*
%TO.P,XA1,D10*%
X71430000Y35110000D03*
%TO.P,XA1,RAW*%
X43490000Y35110000D03*
%TO.P,XA1,GND*%
%TO.N,GND*%
X46030000Y35110000D03*
%TO.P,XA1,RST*%
%TO.N,N/C*%
X48570000Y35110000D03*
%TO.P,XA1,VCC*%
%TO.N,+5V*%
X51110000Y35110000D03*
%TO.P,XA1,A3*%
%TO.N,N/C*%
X53650000Y35110000D03*
%TO.P,XA1,A2*%
X56190000Y35110000D03*
%TO.P,XA1,A1*%
X58730000Y35110000D03*
%TO.P,XA1,A0*%
X61270000Y35110000D03*
%TO.P,XA1,D13*%
X63810000Y35110000D03*
%TO.P,XA1,D12*%
X66350000Y35110000D03*
%TO.P,XA1,D11*%
X68890000Y35110000D03*
%TD*%
D11*
%TO.P,J3,4*%
%TO.N,SDA*%
X63900000Y7900000D03*
%TO.P,J3,3*%
%TO.N,SCL*%
X61400000Y7900000D03*
%TO.P,J3,2*%
%TO.N,+5V*%
X58900000Y7900000D03*
D12*
%TO.P,J3,1*%
%TO.N,GND*%
X56400000Y7900000D03*
%TD*%
D13*
%TO.P,D1,1*%
%TO.N,Net-(D1-Pad1)*%
X4480000Y12800000D03*
%TO.P,D1,2*%
%TO.N,GND*%
X19720000Y12800000D03*
%TD*%
%TO.P,J1,5*%
%TO.N,24V*%
X4680000Y33800000D03*
%TO.P,J1,4*%
%TO.N,GND*%
X9760000Y33800000D03*
%TO.P,J1,3*%
%TO.N,24V*%
X14840000Y33800000D03*
%TO.P,J1,2*%
%TO.N,GND*%
X19920000Y33800000D03*
D14*
%TO.P,J1,1*%
%TO.N,OUT*%
X25000000Y33800000D03*
%TD*%
D15*
%TO.P,VR1,1*%
%TO.N,24V*%
X11100000Y22000000D03*
D16*
%TO.P,VR1,2*%
%TO.N,Net-(D1-Pad1)*%
X12800000Y18000000D03*
%TO.P,VR1,3*%
%TO.N,GND*%
X14500000Y22000000D03*
%TO.P,VR1,4*%
%TO.N,+5V*%
X16200000Y18000000D03*
%TO.P,VR1,5*%
%TO.N,GND*%
X17900000Y22000000D03*
%TD*%
D10*
%TO.P,L1,2*%
%TO.N,+5V*%
X12800000Y1300000D03*
%TO.P,L1,1*%
%TO.N,Net-(D1-Pad1)*%
X12800000Y8300000D03*
%TD*%
D17*
%TO.P,R101,1*%
%TO.N,OUT*%
X30000000Y26200000D03*
%TO.P,R101,2*%
%TO.N,Net-(R100-Pad1)*%
X30000000Y16200000D03*
%TD*%
D18*
%TO.P,R100,1*%
%TO.N,Net-(R100-Pad1)*%
X35200000Y16200000D03*
%TO.P,R100,2*%
%TO.N,GND*%
X35200000Y26200000D03*
%TD*%
D19*
%TO.P,C1,1*%
%TO.N,24V*%
X4700000Y22000000D03*
D10*
%TO.P,C1,2*%
%TO.N,GND*%
X4700000Y19000000D03*
%TD*%
D18*
%TO.P,C2,2*%
%TO.N,GND*%
X26700000Y7900000D03*
D19*
%TO.P,C2,1*%
%TO.N,+5V*%
X26700000Y2900000D03*
%TD*%
D20*
%TO.N,GND*%
X1800000Y19000000D02*
X4700000Y19000000D01*
X1300000Y19500000D02*
X1800000Y19000000D01*
X1300000Y37800000D02*
X1300000Y19500000D01*
X1500400Y38000400D02*
X1300000Y37800000D01*
X14500000Y22000000D02*
X17900000Y22000000D01*
X19920000Y33800000D02*
X19920000Y24820000D01*
X1800000Y38300000D02*
X1300000Y37800000D01*
X9760000Y38240000D02*
X9700000Y38300000D01*
X9760000Y33800000D02*
X9760000Y38240000D01*
X9700000Y38300000D02*
X1800000Y38300000D01*
X23500000Y21400000D02*
X23500000Y12800000D01*
X19720000Y12800000D02*
X23500000Y12800000D01*
X17900000Y22000000D02*
X19900000Y22000000D01*
X19900000Y24800000D02*
X19920000Y24820000D01*
X19900000Y22000000D02*
X19900000Y24800000D01*
X22900000Y22000000D02*
X23500000Y21400000D01*
X19900000Y22000000D02*
X22900000Y22000000D01*
X19920000Y33800000D02*
X19920000Y38080000D01*
X19700000Y38300000D02*
X9700000Y38300000D01*
X19920000Y38080000D02*
X19700000Y38300000D01*
X35200000Y38300000D02*
X19700000Y38300000D01*
X35200000Y26200000D02*
X35200000Y38300000D01*
X35200000Y38300000D02*
X45600000Y38300000D01*
X46030000Y37870000D02*
X46030000Y35110000D01*
X45600000Y38300000D02*
X46030000Y37870000D01*
X26700000Y12600000D02*
X26700000Y7900000D01*
X26500000Y12800000D02*
X26700000Y12600000D01*
X23500000Y12800000D02*
X26500000Y12800000D01*
X26500000Y12800000D02*
X55900000Y12800000D01*
X56400000Y12300000D02*
X56400000Y7900000D01*
X55900000Y12800000D02*
X56400000Y12300000D01*
%TO.N,Net-(D1-Pad1)*%
X4480000Y12800000D02*
X12300000Y12800000D01*
X12800000Y13300000D02*
X12800000Y18000000D01*
X12800000Y8300000D02*
X12800000Y13300000D01*
D21*
%TO.N,SDA*%
X63900000Y12400000D02*
X63900000Y7900000D01*
X55600000Y25300000D02*
X77020002Y25300000D01*
X54920000Y25980000D02*
X55600000Y25300000D01*
X54920000Y32570000D02*
X54920000Y25980000D01*
X77020002Y25300000D02*
X77020002Y12620002D01*
X76800000Y12400000D02*
X63900000Y12400000D01*
X77020002Y12620002D02*
X76800000Y12400000D01*
%TO.N,SCL*%
X52400000Y32550000D02*
X52380000Y32570000D01*
X75800000Y23800000D02*
X52400000Y23800000D01*
X52400000Y23800000D02*
X52400000Y32550000D01*
X61400000Y13800000D02*
X61900000Y14300000D01*
X61900000Y14300000D02*
X75900000Y14300000D01*
X61400000Y7900000D02*
X61400000Y13800000D01*
X75900000Y23700000D02*
X75800000Y23800000D01*
X75900000Y14300000D02*
X75900000Y23700000D01*
D20*
%TO.N,24V*%
X4680000Y22020000D02*
X4700000Y22000000D01*
X4680000Y33800000D02*
X4680000Y29480000D01*
X4680000Y29480000D02*
X4680000Y22020000D01*
X11100000Y29400000D02*
X11180000Y29480000D01*
X11100000Y22000000D02*
X11100000Y29400000D01*
X11180000Y29480000D02*
X14420000Y29480000D01*
X4680000Y29480000D02*
X11180000Y29480000D01*
X14840000Y29900000D02*
X14420000Y29480000D01*
X14840000Y33800000D02*
X14840000Y29900000D01*
D21*
%TO.N,OUT*%
X25000000Y33800000D02*
X30000000Y33800000D01*
X30000000Y33800000D02*
X30000000Y26200000D01*
%TO.N,Net-(R100-Pad1)*%
X35200000Y16200000D02*
X30000000Y16200000D01*
X35200000Y16200000D02*
X53500000Y16200000D01*
X53650000Y16350000D02*
X53650000Y19870000D01*
X53500000Y16200000D02*
X53650000Y16350000D01*
D20*
%TO.N,+5V*%
X16200000Y18000000D02*
X16200000Y4300000D01*
X16200000Y4300000D02*
X16200000Y2800000D01*
X16200000Y2800000D02*
X26800000Y2800000D01*
X12800000Y1300000D02*
X16100000Y1300000D01*
X16200000Y1400000D02*
X16200000Y2800000D01*
X16100000Y1300000D02*
X16200000Y1400000D01*
X26700000Y2900000D02*
X58800000Y2900000D01*
X58900000Y3000000D02*
X58900000Y7900000D01*
X58800000Y2900000D02*
X58900000Y3000000D01*
X74300000Y22000000D02*
X74100000Y22200000D01*
X74300000Y16300000D02*
X74300000Y22000000D01*
X74100000Y16100000D02*
X74300000Y16300000D01*
X58900000Y16100000D02*
X74100000Y16100000D01*
X58900000Y7900000D02*
X58900000Y16100000D01*
X51110000Y35110000D02*
X51110000Y34310000D01*
X51110000Y34310000D02*
X48600000Y31800000D01*
X48600000Y22800000D02*
X49200000Y22200000D01*
X48600000Y31800000D02*
X48600000Y22800000D01*
X74100000Y22200000D02*
X49200000Y22200000D01*
%TD*%
M02*
